<?xml version="1.0" encoding="UTF-8" standalone="no"?>
<!-- Created with Inkscape (http://www.inkscape.org/) -->

<svg
   version="1.1"
   width="34.291672"
   height="40"
   id="svg3033"
   xmlns="http://www.w3.org/2000/svg"
   xmlns:svg="http://www.w3.org/2000/svg"
   xmlns:rdf="http://www.w3.org/1999/02/22-rdf-syntax-ns#"
   xmlns:cc="http://creativecommons.org/ns#"
   xmlns:dc="http://purl.org/dc/elements/1.1/">
  <title
     id="title3077">Bass Clef</title>
  <defs
     id="defs3035" />
  <metadata
     id="metadata3038">
    <rdf:RDF>
      <cc:Work
         rdf:about="">
        <dc:format>image/svg+xml</dc:format>
        <dc:type
           rdf:resource="http://purl.org/dc/dcmitype/StillImage" />
        <dc:title>Bass Clef</dc:title>
        <dc:creator>
          <cc:Agent>
            <dc:title>Jaschon</dc:title>
          </cc:Agent>
        </dc:creator>
        <cc:license
           rdf:resource="http://creativecommons.org/licenses/publicdomain/" />
      </cc:Work>
      <cc:License
         rdf:about="http://creativecommons.org/licenses/publicdomain/">
        <cc:permits
           rdf:resource="http://creativecommons.org/ns#Reproduction" />
        <cc:permits
           rdf:resource="http://creativecommons.org/ns#Distribution" />
        <cc:permits
           rdf:resource="http://creativecommons.org/ns#DerivativeWorks" />
      </cc:License>
    </rdf:RDF>
  </metadata>
  <g
     id="layer1"
     style="fill:#ffffff;fill-opacity:1;stroke:#ffffff;stroke-opacity:1"
     transform="matrix(0.08083369,0,0,0.08083369,-12.923322,-22.53245)">
    <path
       d="m 190.85272,451.25133 c 11.66109,14.71933 32.32286,24.49078 55.84396,24.49078 36.40052,0 65.88892,-23.37191 65.88892,-52.21386 0,-28.84194 -29.4884,-52.21385 -65.88892,-52.21385 -20.31367,4.15224 -28.5933,9.00067 -33.14336,-2.90906 17.97648,-54.32728 46.91788,-66.70942 96.54591,-66.70942 65.91378,0 96.96859,59.89675 96.96859,142.96652 -18.22512,190.63031 -205.94638,286.75353 -246.57373,316.1922 5.6938,13.10319 5.39543,12.63078 5.39543,12.00919 189.78494,-86.20259 330.68777,-204.42969 330.68777,-320.74227 0,-92.41853 -58.57898,-175.58775 -187.72125,-172.80301 -77.57488,0 -170.31663,86.20259 -118.00332,171.93278 z M 518.95466,361.3689 c 0,17.85217 14.4707,32.32286 32.32286,32.32286 17.85217,0 32.32287,-14.47069 32.32287,-32.32286 0,-17.85217 -14.4707,-32.32286 -32.32287,-32.32286 -17.85216,0 -32.32286,14.47069 -32.32286,32.32286 z m 0,136.75058 c 0,17.85217 14.4707,32.32287 32.32286,32.32287 17.85217,0 32.32287,-14.4707 32.32287,-32.32287 0,-17.85217 -14.4707,-32.32286 -32.32287,-32.32286 -17.85216,0 -32.32286,14.47069 -32.32286,32.32286 z"
       id="path3"
       style="fill:#ffffff;fill-opacity:1;fill-rule:evenodd;stroke:#ffffff;stroke-opacity:1" />
  </g>
</svg>
